<mxfile host="app.diagrams.net" modified="2023-06-19T09:54:06.478Z" agent="Mozilla/5.0 (Windows NT 10.0; Win64; x64) AppleWebKit/537.36 (KHTML, like Gecko) Chrome/114.0.0.0 Safari/537.36" version="21.1.8" etag="yOAFt2r4E1fYfkj3W972" type="github">
  <diagram name="Page-1" id="cYlu6envv1czvwRp3Ll9">
    <mxGraphModel>
      <root>
        <mxCell id="0" />
        <mxCell id="1" parent="0" />
      </root>
    </mxGraphModel>
  </diagram>
</mxfile>
